<?xml version="1.0" standalone="no"?>
<!DOCTYPE svg PUBLIC "-//W3C//DTD SVG 20010904//EN"
 "http://www.w3.org/TR/2001/REC-SVG-20010904/DTD/svg10.dtd">
<svg version="1.0" xmlns="http://www.w3.org/2000/svg"
 width="700.000000pt" height="700.000000pt" viewBox="0 0 700.000000 700.000000"
 preserveAspectRatio="xMidYMid meet">
<metadata>
Created by potrace 1.14, written by Peter Selinger 2001-2017
</metadata>
<g transform="translate(0.000000,700.000000) scale(0.100000,-0.100000)"
fill="#000000" stroke="none">
<path d="M6565 6949 c-88 -27 -169 -52 -179 -54 -11 -3 -54 -16 -95 -29 -42
-13 -150 -48 -241 -76 -590 -185 -1215 -392 -1720 -570 -96 -33 -179 -62 -184
-63 -4 -1 -27 59 -50 133 -50 161 -64 188 -111 224 -95 73 -169 65 -355 -39
-36 -20 -99 -55 -140 -77 -332 -180 -758 -429 -1078 -629 -56 -35 -110 -69
-120 -74 -45 -27 -363 -239 -492 -328 -267 -186 -603 -444 -759 -583 -366
-325 -536 -524 -703 -824 -77 -138 -127 -248 -180 -395 -40 -110 -101 -334
-112 -410 -4 -23 -8 -50 -10 -61 -2 -11 -7 -47 -11 -79 -4 -33 -10 -69 -12
-80 -8 -35 -10 -463 -3 -513 5 -26 11 -76 15 -112 8 -70 7 -68 31 -185 176
-875 802 -1617 1641 -1943 99 -39 281 -96 336 -106 15 -3 35 -7 45 -10 9 -3
28 -7 42 -10 14 -3 48 -9 75 -15 28 -5 77 -13 110 -16 33 -4 69 -9 80 -12 38
-9 460 -11 535 -2 432 51 776 165 1119 371 186 112 404 284 515 407 17 19 61
66 97 105 194 208 436 509 643 801 167 237 542 815 644 995 10 19 42 72 71
118 28 46 51 85 51 88 0 2 11 21 24 42 25 40 186 324 244 431 150 279 213 398
223 428 41 125 -33 246 -176 286 -11 3 -66 20 -122 37 l-102 31 16 42 c98 267
378 1097 498 1477 20 63 45 140 55 170 27 80 206 655 215 690 2 8 14 47 25 85
31 101 36 126 34 160 -6 72 -17 99 -57 142 -89 97 -149 102 -372 32z m-3748
-2573 c16 -3 48 -8 73 -12 24 -3 47 -7 50 -9 3 -2 26 -6 50 -10 92 -14 243
-67 390 -138 416 -200 743 -572 889 -1012 138 -417 121 -862 -50 -1261 -215
-500 -644 -867 -1164 -994 -161 -39 -232 -47 -415 -49 -252 -3 -454 34 -675
122 -410 164 -732 464 -925 862 -94 195 -146 375 -167 580 -13 131 -8 341 13
465 17 106 78 326 95 345 5 5 9 15 9 23 0 21 100 217 152 298 229 357 598 627
1009 738 52 14 112 28 134 31 22 3 46 8 53 10 7 3 47 7 90 11 42 4 78 8 80 9
5 5 282 -3 309 -9z"/>
<path d="M2067 3500 c-103 -26 -221 -117 -272 -211 -97 -179 -64 -393 83 -534
51 -49 165 -104 232 -111 69 -8 65 -8 127 0 200 24 359 198 371 402 10 183
-81 340 -245 421 -65 32 -82 36 -165 39 -51 2 -110 -1 -131 -6z"/>
<path d="M2763 2184 c-107 -37 -168 -181 -121 -286 35 -79 97 -124 183 -132
125 -12 233 87 233 214 -1 152 -149 254 -295 204z"/>
</g>
</svg>
