<?xml version="1.0" encoding="UTF-8" standalone="no"?>
<!DOCTYPE svg PUBLIC "-//W3C//DTD SVG 1.1//EN" "http://www.w3.org/Graphics/SVG/1.1/DTD/svg11.dtd">
<svg width="100%" height="100%" viewBox="0 0 512 512" version="1.1" xmlns="http://www.w3.org/2000/svg" xmlns:xlink="http://www.w3.org/1999/xlink" xml:space="preserve" xmlns:serif="http://www.serif.com/" style="fill-rule:evenodd;clip-rule:evenodd;stroke-linejoin:round;stroke-miterlimit:2;">
    <path d="M511.4,20.72C499.77,59.47 477.02,132.52 450.02,208.52C457.02,210.645 463.4,212.52 468.65,214.145C473.275,215.52 477.025,218.896 478.78,223.272C480.655,227.772 480.405,232.773 478.155,237.022C456.025,279.272 395.525,389.822 335.655,451.422C334.655,452.547 333.654,453.922 332.654,454.922C256.654,531.052 133.254,531.052 57.154,455.047C-18.976,378.917 -18.976,255.547 57.154,179.347C58.154,178.347 59.529,177.347 60.654,176.347C122.1,116.5 232.5,55.97 274.1,33.84C278.35,31.59 283.35,31.34 287.73,33.215C292.23,35.09 295.605,38.841 296.98,43.345C298.605,48.47 300.48,54.975 302.605,61.975C378.485,34.975 451.505,12.225 490.205,0.725C495.955,-1.025 502.085,0.475 506.335,4.725C511.5,8.844 512.1,15.09 511.4,20.72ZM319.1,319.1C319.1,248.47 261.72,191.1 191.1,191.1C120.35,191.1 63.1,248.48 63.1,319.1C63.1,389.86 120.35,447.1 191.1,447.1C262.6,448 319.1,390.8 319.1,319.1ZM191.1,287.1C191.1,304.73 176.73,319.1 159.1,319.1C141.35,319.1 127.1,304.72 127.1,287.1C127.1,269.48 141.35,255.1 159.1,255.1C167.6,255.1 175.73,258.475 181.73,264.475C187.73,270.475 191.1,279.5 191.1,287.1ZM223.9,367.1C223.9,375.976 216.676,383.1 207.93,383.1C199.055,383.1 191.93,375.973 191.93,367.1C191.93,358.224 199.03,351.1 207.91,351.1C216.7,351.1 223.9,359.1 223.9,367.1Z" style="fill:url(#_Linear1);fill-rule:nonzero;"/>
    <defs>
        <linearGradient id="_Linear1" x1="0" y1="0" x2="1" y2="0" gradientUnits="userSpaceOnUse" gradientTransform="matrix(398.803,-394.23,394.573,399.149,75.9084,441.659)"><stop offset="0" style="stop-color:rgb(235,0,255);stop-opacity:1"/><stop offset="0.43" style="stop-color:rgb(177,0,255);stop-opacity:1"/><stop offset="1" style="stop-color:rgb(45,0,255);stop-opacity:1"/></linearGradient>
    </defs>
</svg>
